<?xml version="1.0" encoding="UTF-8"?>
<svg xmlns="http://www.w3.org/2000/svg" xmlns:xlink="http://www.w3.org/1999/xlink" width="375pt" height="374.999991pt" viewBox="0 0 375 374.999991" version="1.2">
<defs>
<clipPath id="clip1">
  <path d="M 153 51 L 221 51 L 221 323.3125 L 153 323.3125 Z M 153 51 "/>
</clipPath>
</defs>
<g id="surface1">
<path style=" stroke:none;fill-rule:nonzero;fill:rgb(57.249451%,9.01947%,9.01947%);fill-opacity:1;" d="M 187.488281 37.5 C 185.035156 37.5 182.582031 37.558594 180.128906 37.679688 C 177.679688 37.800781 175.230469 37.980469 172.789062 38.222656 C 170.34375 38.460938 167.910156 38.761719 165.480469 39.125 C 163.054688 39.484375 160.636719 39.902344 158.226562 40.382812 C 155.820312 40.859375 153.425781 41.398438 151.046875 41.996094 C 148.664062 42.589844 146.296875 43.246094 143.949219 43.957031 C 141.601562 44.671875 139.269531 45.441406 136.960938 46.269531 C 134.648438 47.09375 132.359375 47.976562 130.089844 48.917969 C 127.824219 49.855469 125.578125 50.851562 123.359375 51.902344 C 121.140625 52.949219 118.949219 54.054688 116.785156 55.210938 C 114.621094 56.367188 112.484375 57.578125 110.378906 58.839844 C 108.273438 60.101562 106.199219 61.414062 104.160156 62.777344 C 102.117188 64.140625 100.113281 65.554688 98.140625 67.015625 C 96.167969 68.480469 94.234375 69.988281 92.335938 71.546875 C 90.441406 73.101562 88.582031 74.707031 86.761719 76.355469 C 84.945312 78.003906 83.167969 79.695312 81.429688 81.429688 C 79.695312 83.167969 78.003906 84.945312 76.355469 86.761719 C 74.707031 88.582031 73.101562 90.441406 71.546875 92.335938 C 69.988281 94.234375 68.480469 96.167969 67.015625 98.140625 C 65.554688 100.113281 64.140625 102.117188 62.777344 104.160156 C 61.414062 106.199219 60.101562 108.273438 58.839844 110.378906 C 57.578125 112.484375 56.367188 114.621094 55.210938 116.785156 C 54.054688 118.949219 52.949219 121.140625 51.902344 123.359375 C 50.851562 125.578125 49.855469 127.824219 48.917969 130.089844 C 47.976562 132.359375 47.09375 134.648438 46.269531 136.960938 C 45.441406 139.269531 44.671875 141.601562 43.957031 143.949219 C 43.246094 146.296875 42.589844 148.664062 41.996094 151.046875 C 41.398438 153.425781 40.859375 155.820312 40.382812 158.226562 C 39.902344 160.636719 39.484375 163.054688 39.125 165.480469 C 38.761719 167.910156 38.460938 170.34375 38.222656 172.789062 C 37.980469 175.230469 37.800781 177.679688 37.679688 180.128906 C 37.558594 182.582031 37.5 185.035156 37.5 187.488281 C 37.5 189.945312 37.558594 192.398438 37.679688 194.847656 C 37.800781 197.300781 37.980469 199.75 38.222656 202.191406 C 38.460938 204.632812 38.761719 207.070312 39.125 209.496094 C 39.484375 211.925781 39.902344 214.34375 40.382812 216.75 C 40.859375 219.160156 41.398438 221.550781 41.996094 223.933594 C 42.589844 226.316406 43.246094 228.679688 43.957031 231.027344 C 44.671875 233.378906 45.441406 235.707031 46.269531 238.019531 C 47.09375 240.332031 47.976562 242.621094 48.917969 244.886719 C 49.855469 247.15625 50.851562 249.398438 51.902344 251.617188 C 52.949219 253.835938 54.054688 256.027344 55.210938 258.195312 C 56.367188 260.359375 57.578125 262.492188 58.839844 264.597656 C 60.101562 266.703125 61.414062 268.777344 62.777344 270.820312 C 64.140625 272.859375 65.554688 274.867188 67.015625 276.839844 C 68.480469 278.808594 69.988281 280.746094 71.546875 282.640625 C 73.101562 284.539062 74.707031 286.398438 76.355469 288.214844 C 78.003906 290.035156 79.695312 291.8125 81.429688 293.546875 C 83.167969 295.285156 84.945312 296.976562 86.761719 298.625 C 88.582031 300.273438 90.441406 301.875 92.335938 303.433594 C 94.234375 304.988281 96.167969 306.5 98.140625 307.960938 C 100.113281 309.425781 102.117188 310.835938 104.160156 312.199219 C 106.199219 313.566406 108.273438 314.878906 110.378906 316.140625 C 112.484375 317.402344 114.621094 318.609375 116.785156 319.769531 C 118.949219 320.925781 121.140625 322.027344 123.359375 323.078125 C 125.578125 324.128906 127.824219 325.121094 130.089844 326.0625 C 132.359375 327 134.648438 327.882812 136.960938 328.710938 C 139.269531 329.539062 141.601562 330.308594 143.949219 331.019531 C 146.296875 331.734375 148.664062 332.386719 151.046875 332.984375 C 153.425781 333.582031 155.820312 334.117188 158.226562 334.597656 C 160.636719 335.074219 163.054688 335.496094 165.480469 335.855469 C 167.910156 336.214844 170.34375 336.515625 172.789062 336.757812 C 175.230469 336.996094 177.679688 337.175781 180.128906 337.296875 C 182.582031 337.417969 185.035156 337.480469 187.488281 337.480469 C 189.945312 337.480469 192.398438 337.417969 194.847656 337.296875 C 197.300781 337.175781 199.75 336.996094 202.191406 336.757812 C 204.632812 336.515625 207.070312 336.214844 209.496094 335.855469 C 211.925781 335.496094 214.34375 335.074219 216.75 334.597656 C 219.160156 334.117188 221.550781 333.582031 223.933594 332.984375 C 226.316406 332.386719 228.679688 331.734375 231.027344 331.019531 C 233.378906 330.308594 235.707031 329.539062 238.019531 328.710938 C 240.332031 327.882812 242.621094 327 244.886719 326.0625 C 247.15625 325.121094 249.398438 324.128906 251.617188 323.078125 C 253.835938 322.027344 256.027344 320.925781 258.195312 319.769531 C 260.359375 318.609375 262.492188 317.402344 264.597656 316.140625 C 266.703125 314.878906 268.777344 313.566406 270.820312 312.199219 C 272.859375 310.835938 274.867188 309.425781 276.839844 307.960938 C 278.808594 306.5 280.746094 304.988281 282.640625 303.433594 C 284.539062 301.875 286.398438 300.273438 288.214844 298.625 C 290.035156 296.976562 291.8125 295.285156 293.546875 293.546875 C 295.285156 291.8125 296.976562 290.035156 298.625 288.214844 C 300.273438 286.398438 301.875 284.539062 303.433594 282.640625 C 304.988281 280.746094 306.5 278.808594 307.960938 276.839844 C 309.425781 274.867188 310.835938 272.859375 312.199219 270.820312 C 313.566406 268.777344 314.878906 266.703125 316.140625 264.597656 C 317.402344 262.492188 318.609375 260.359375 319.769531 258.195312 C 320.925781 256.027344 322.027344 253.835938 323.078125 251.617188 C 324.128906 249.398438 325.121094 247.15625 326.0625 244.886719 C 327 242.621094 327.882812 240.332031 328.710938 238.019531 C 329.539062 235.707031 330.308594 233.378906 331.019531 231.027344 C 331.734375 228.679688 332.386719 226.316406 332.984375 223.933594 C 333.582031 221.550781 334.117188 219.160156 334.597656 216.75 C 335.074219 214.34375 335.496094 211.925781 335.855469 209.496094 C 336.214844 207.070312 336.515625 204.632812 336.757812 202.191406 C 336.996094 199.75 337.175781 197.300781 337.296875 194.847656 C 337.417969 192.398438 337.480469 189.945312 337.480469 187.488281 C 337.480469 185.035156 337.417969 182.582031 337.296875 180.128906 C 337.175781 177.679688 336.996094 175.230469 336.757812 172.789062 C 336.515625 170.34375 336.214844 167.910156 335.855469 165.480469 C 335.496094 163.054688 335.074219 160.636719 334.597656 158.226562 C 334.117188 155.820312 333.582031 153.425781 332.984375 151.046875 C 332.386719 148.664062 331.734375 146.296875 331.019531 143.949219 C 330.308594 141.601562 329.539062 139.269531 328.710938 136.960938 C 327.882812 134.648438 327 132.359375 326.0625 130.089844 C 325.121094 127.824219 324.128906 125.578125 323.078125 123.359375 C 322.027344 121.140625 320.925781 118.949219 319.769531 116.785156 C 318.609375 114.621094 317.402344 112.484375 316.140625 110.378906 C 314.878906 108.273438 313.566406 106.199219 312.199219 104.160156 C 310.835938 102.117188 309.425781 100.113281 307.960938 98.140625 C 306.5 96.167969 304.988281 94.234375 303.433594 92.335938 C 301.875 90.441406 300.273438 88.582031 298.625 86.761719 C 296.976562 84.945312 295.285156 83.167969 293.546875 81.429688 C 291.8125 79.695312 290.035156 78.003906 288.214844 76.355469 C 286.398438 74.707031 284.539062 73.101562 282.640625 71.546875 C 280.746094 69.988281 278.808594 68.480469 276.839844 67.015625 C 274.867188 65.554688 272.859375 64.140625 270.820312 62.777344 C 268.777344 61.414062 266.703125 60.101562 264.597656 58.839844 C 262.492188 57.578125 260.359375 56.367188 258.195312 55.210938 C 256.027344 54.054688 253.835938 52.949219 251.617188 51.902344 C 249.398438 50.851562 247.15625 49.855469 244.886719 48.917969 C 242.621094 47.976562 240.332031 47.09375 238.019531 46.269531 C 235.707031 45.441406 233.378906 44.671875 231.027344 43.957031 C 228.679688 43.246094 226.316406 42.589844 223.933594 41.996094 C 221.550781 41.398438 219.160156 40.859375 216.75 40.382812 C 214.34375 39.902344 211.925781 39.484375 209.496094 39.125 C 207.070312 38.761719 204.632812 38.460938 202.191406 38.222656 C 199.75 37.980469 197.300781 37.800781 194.847656 37.679688 C 192.398438 37.558594 189.945312 37.5 187.488281 37.5 Z M 187.488281 37.5 "/>
<g clip-path="url(#clip1)" clip-rule="nonzero">
<path style=" stroke:none;fill-rule:nonzero;fill:rgb(100%,100%,100%);fill-opacity:1;" d="M 220.972656 312.625 L 220.972656 153.421875 C 220.972656 126.152344 200.355469 119.886719 200.355469 119.886719 C 196.304688 118.78125 196.304688 116.199219 196.304688 116.199219 L 196.304688 68.660156 C 197.039062 67.925781 197.410156 66.449219 197.410156 66.449219 L 197.410156 57.238281 C 197.410156 50.601562 188.203125 51.339844 187.46875 51.339844 C 186.730469 51.339844 177.527344 50.601562 177.527344 57.238281 L 177.527344 66.449219 C 177.527344 66.449219 177.894531 67.925781 178.632812 68.660156 L 178.632812 115.832031 C 178.632812 115.832031 178.632812 118.410156 174.582031 119.515625 C 174.582031 119.515625 153.964844 125.78125 153.964844 153.054688 L 153.964844 312.625 C 153.964844 312.625 153.226562 323.3125 164.273438 323.3125 L 210.664062 323.3125 C 221.707031 323.3125 220.972656 312.625 220.972656 312.625 Z M 220.972656 312.625 "/>
</g>
<path style=" stroke:none;fill-rule:nonzero;fill:rgb(57.249451%,9.01947%,9.01947%);fill-opacity:1;" d="M 159.765625 173.683594 L 214.085938 173.683594 L 214.085938 274.402344 L 159.765625 274.402344 Z M 159.765625 173.683594 "/>
</g>
</svg>
